<svg xmlns="http://www.w3.org/2000/svg" xmlns:xlink="http://www.w3.org/1999/xlink" width="48" height="48"><defs><radialGradient id="f" cx="24.538" cy=".4" r="17.171" fx="24.538" fy=".4" gradientTransform="matrix(0 -2.04673 1.55761 0 2.767 66.933)" gradientUnits="userSpaceOnUse" xlink:href="#a"/><radialGradient id="e" cx="11.319" cy="22.455" r="16.956" fx="11.319" fy="22.455" gradientTransform="matrix(0 -.84302 1.02017 0 .606 42.586)" gradientUnits="userSpaceOnUse" xlink:href="#b"/><radialGradient id="d" cx="24.837" cy="36.421" r="15.645" fx="24.837" fy="36.421" gradientTransform="matrix(1 0 0 .53672 0 16.873)" gradientUnits="userSpaceOnUse" xlink:href="#c"/><linearGradient id="b"><stop offset="0" stop-color="#73d216"/><stop offset="1" stop-color="#4e9a06"/></linearGradient><linearGradient id="c"><stop offset="0"/><stop offset="1" stop-opacity="0"/></linearGradient><linearGradient id="a"><stop offset="0" stop-color="#fff"/><stop offset="1" stop-color="#fff" stop-opacity="0"/></linearGradient></defs><g color="#000"><path fill="url(#d)" fill-rule="evenodd" d="M40.482 36.421a15.645 8.397 0 11-31.29 0 15.645 8.397 0 1131.29 0z" opacity=".299" style="marker:none" transform="matrix(1.21447 0 0 .59546 -6.164 16.313)"/><path fill="url(#e)" fill-rule="evenodd" stroke="#3a7304" stroke-linecap="round" stroke-linejoin="round" stroke-miterlimit="10" d="M14.492 38.5h17.977V25.547H40.5L23.375 5.5 6.529 25.49l7.968.067-.005 12.944z" style="marker:none"/><path fill="url(#f)" fill-rule="evenodd" d="M7.586 25.033h7.41l.066 6.561c5.656-11 15.994-8.844 16.595-15.627l-8.29-9.545-15.781 18.61z" opacity=".508" style="marker:none"/><path fill="#c70101" stroke="#fff" stroke-miterlimit="10" d="M15.603 37.5h15.9V24.507h6.809L23.362 7.07 8.654 24.55l6.82-.022.128 12.972z" opacity=".481" style="marker:none"/></g></svg>